<svg width="94" height="105" viewBox="0 0 94 105" fill="none" xmlns="http://www.w3.org/2000/svg">
<path d="M72.7274 73.006C84.4001 55.6874 88.3363 37.9231 81.5191 33.3282C74.7018 28.7334 59.7127 39.0481 48.0399 56.3667C36.3672 73.6853 32.431 91.4497 39.2482 96.0445C46.0655 100.639 61.0546 90.3247 72.7274 73.006Z" fill="#303646"/>
<path d="M70.6965 71.6382C82.3693 54.3196 86.7054 36.8247 80.3814 32.5624C74.0575 28.3001 59.4683 38.8843 47.7956 56.2029C36.1228 73.5215 31.7867 91.0164 38.1106 95.2787C44.4345 99.541 59.0237 88.9568 70.6965 71.6382Z" fill="white"/>
<path d="M68.7872 70.352C79.1041 55.0452 82.9366 39.5827 77.3474 35.8156C71.7582 32.0484 58.8638 41.4032 48.547 56.7101C38.2301 72.017 34.3976 87.4795 39.9868 91.2466C45.576 95.0137 58.4704 85.6589 68.7872 70.352Z" fill="#CD2B31"/>
<path d="M66.4128 68.747C74.8113 56.2863 77.9311 43.6989 73.381 40.6321C68.831 37.5654 58.3341 45.1806 49.9356 57.6413C41.5371 70.102 38.4173 82.6894 42.9674 85.7562C47.5175 88.8229 58.0144 81.2076 66.4128 68.747Z" fill="white"/>
<path d="M65.0894 66.987C71.9154 56.8698 74.4539 46.6475 70.7594 44.1548C67.0648 41.6621 58.5362 47.8429 51.7102 57.9601C44.8842 68.0772 42.3456 78.2995 46.0402 80.7922C49.7347 83.2849 58.2633 77.1041 65.0894 66.987Z" fill="#CD2B31"/>
<path d="M61.6336 65.5291C66.1954 58.7609 67.8896 51.9235 65.4178 50.2575C62.946 48.5915 57.2441 52.7277 52.6822 59.4959C48.1204 66.2642 46.4262 73.1015 48.898 74.7675C51.3699 76.4336 57.0718 72.2974 61.6336 65.5291Z" fill="white"/>
<path d="M60.2516 63.7239C62.5541 60.3113 63.4101 56.8629 62.1634 56.0217C60.9167 55.1806 58.0394 57.2652 55.7369 60.6779C53.4344 64.0905 52.5785 67.5389 53.8252 68.38C55.0719 69.2212 57.9491 67.1366 60.2516 63.7239Z" fill="#CD2B31"/>
<path d="M54.8646 56.2888C53.7186 57.0872 50.3725 59.169 50.2808 59.6655C50.1891 60.1621 53.6919 60.1812 54.1006 59.4058C54.5093 58.6304 54.8646 56.2888 54.8646 56.2888Z" fill="#BAB3B4"/>
<path d="M4.02696 11.1428C4.36692 11.1161 8.47316 10.9098 9.2524 11.3491C9.77101 11.6796 10.198 12.1355 10.4938 12.6746C7.73212 13.1482 6.02852 13.4385 5.12323 12.4951C4.6534 12.0023 4.28667 11.6623 4.08804 11.4484C3.88941 11.2345 3.86271 11.1581 4.02696 11.1428Z" fill="white"/>
<path opacity="0.09" d="M4.02699 11.1428C4.36695 11.1161 8.4732 10.9098 9.25243 11.3491C8.87045 11.7655 5.21491 12.4607 4.08808 11.4484C3.90855 11.2498 3.86274 11.1581 4.02699 11.1428Z" fill="#1F1F39"/>
<path d="M2.84652 9.84029C3.18266 9.80973 7.29276 9.60728 8.06818 10.0427C8.59635 10.385 9.02778 10.8572 9.32108 11.414C6.55938 11.8877 4.84426 12.1513 3.93897 11.1925C3.47296 10.6959 3.10628 10.3598 2.90765 10.1459C2.70902 9.93197 2.68227 9.85174 2.84652 9.84029Z" fill="white"/>
<path opacity="0.09" d="M2.84675 9.84032C3.18289 9.80976 7.293 9.60731 8.06841 10.0428C7.68643 10.4591 5.60083 11.0818 2.90788 10.1459C2.72071 9.94728 2.6825 9.85178 2.84675 9.84032Z" fill="#1F1F39"/>
<path d="M1.52478 8.31604C2.16874 8.46806 2.83312 8.5145 3.49197 8.45355H3.51869C4.90527 8.34659 6.35682 8.30076 6.74644 8.51849C7.30746 8.90966 7.76177 9.43489 8.06807 10.0464C5.30636 10.5239 3.52252 10.6308 2.61723 9.66442C2.15122 9.16785 1.78453 8.83171 1.58591 8.61781L1.52478 8.54904C1.39108 8.40007 1.37962 8.3275 1.52478 8.31604Z" fill="white"/>
<path opacity="0.09" d="M1.52478 8.31604C2.16874 8.46806 2.83312 8.5145 3.49197 8.45355H3.51869C4.93201 8.36569 6.39883 8.33896 6.78845 8.55669C6.40647 8.97304 3.73261 9.29008 1.62409 8.65982L1.52478 8.55286C1.39108 8.40007 1.37962 8.3275 1.52478 8.31604Z" fill="#1F1F39"/>
<path d="M0.207134 6.8189C0.547095 6.79216 4.65334 6.58589 5.43257 7.02135C5.98621 7.40574 6.43737 7.91983 6.7466 8.51871C3.9849 8.99236 2.20488 9.12987 1.30341 8.1711C0.833577 7.67835 0.466846 7.33839 0.268217 7.12449C0.0695888 6.91058 0.0428838 6.83036 0.207134 6.8189Z" fill="white"/>
<path opacity="0.23" d="M0.20717 6.81884C0.54713 6.7921 4.65337 6.58583 5.43261 7.02128C5.05063 7.43764 2.28892 6.93344 0.268253 7.12443C0.0887229 6.9258 0.042919 6.8303 0.20717 6.81884Z" fill="#1F1F39"/>
<path d="M4.60751 5.76828C4.62513 6.03371 4.71352 6.28959 4.86346 6.50932C5.70381 7.88444 52.4274 59.887 52.5076 60.1429C52.5076 60.1811 52.5725 60.2002 52.6566 60.204C52.7739 60.2085 52.8913 60.1943 53.0042 60.162C53.5695 60.0245 54.3525 59.5585 53.8865 58.7907C53.845 58.7207 53.7977 58.6543 53.7452 58.5921C53.7452 58.5921 7.60222 5.68425 6.51358 5.22205C5.65031 4.85535 4.59606 5.01196 4.60751 5.76828Z" fill="#543237"/>
<path d="M11.0972 4.80586C11.0284 5.13818 10.3332 9.19097 10.6732 10.016C10.9391 10.5719 11.3412 11.0515 11.8421 11.4103C12.6442 8.73642 13.1484 7.06717 12.3081 6.06257C11.8726 5.53926 11.5823 5.13436 11.3913 4.91664C11.2003 4.69891 11.1277 4.64161 11.0972 4.80586Z" fill="white"/>
<path opacity="0.09" d="M11.0972 4.80577C11.0284 5.13809 10.3332 9.19088 10.6732 10.016C11.1316 9.69509 12.2622 6.13887 11.3913 4.90508C11.2156 4.69118 11.1277 4.64152 11.0972 4.80577Z" fill="#1F1F39"/>
<path d="M9.9439 3.47273C9.87515 3.80505 9.17991 7.85783 9.51987 8.6829C9.79647 9.24742 10.2134 9.73143 10.7308 10.0886C11.5329 7.41473 11.9989 5.73403 11.1547 4.72179C10.7193 4.19848 10.429 3.79358 10.238 3.57586C10.047 3.35813 9.97446 3.3123 9.9439 3.47273Z" fill="white"/>
<path opacity="0.09" d="M9.9439 3.47266C9.87515 3.80499 9.17991 7.85777 9.51987 8.68284C9.97824 8.36198 10.8453 6.3566 10.238 3.56816C10.0623 3.36189 9.97446 3.31223 9.9439 3.47266Z" fill="#1F1F39"/>
<path d="M8.58773 1.97913C8.66369 2.63567 8.63143 3.30022 8.49224 3.94632C8.49224 3.94632 8.49224 3.96541 8.49224 3.97687C8.22103 5.33671 7.9995 6.77295 8.17139 7.18931C8.49231 7.79207 8.95832 8.30538 9.52738 8.68284C10.3295 6.009 10.6504 4.24044 9.80622 3.22819C9.37077 2.70106 9.0805 2.29617 8.89333 2.08226L8.8322 2.01351C8.68705 1.8569 8.61829 1.83398 8.58773 1.97913Z" fill="white"/>
<path opacity="0.09" d="M8.58787 1.97909C8.66383 2.63563 8.63157 3.30018 8.49237 3.94627C8.49237 3.94627 8.49237 3.96537 8.49237 3.97683C8.23645 5.36723 8.034 6.81875 8.20589 7.23129C8.66426 6.91043 9.29835 4.28241 8.92401 2.12042L8.83234 2.00583C8.68719 1.85686 8.61843 1.83394 8.58787 1.97909Z" fill="#1F1F39"/>
<path d="M7.25852 0.489512C7.18976 0.825653 6.49457 4.87844 6.83835 5.69969C7.15145 6.29735 7.60661 6.80892 8.16381 7.1894C8.96596 4.51555 9.30972 2.75082 8.47318 1.73858C8.03773 1.21527 7.74746 0.81037 7.55647 0.592642C7.36548 0.374914 7.2929 0.329081 7.25852 0.489512Z" fill="white"/>
<path opacity="0.23" d="M7.25852 0.489357C7.18976 0.825498 6.49457 4.87828 6.83835 5.69953C7.29673 5.37867 7.12484 2.57113 7.55647 0.588663C7.38076 0.378575 7.2929 0.328926 7.25852 0.489357Z" fill="#1F1F39"/>
<path opacity="0.47" d="M4.60742 5.76831C4.62504 6.03374 4.71342 6.28962 4.86336 6.50935C5.70372 7.88447 52.4273 59.887 52.5075 60.1429C52.5304 60.2193 52.7444 60.227 53.0041 60.162C47.6067 53.8212 9.00781 10.4208 4.60742 5.76831Z" fill="#1F1F39"/>
<path d="M50.0706 59.8412C49.7993 60.5212 56.6788 64.0201 57.3663 63.8024H57.3931C57.9164 63.4777 55.2578 56.3271 54.8644 56.3003C54.471 56.2736 53.6803 58.2637 52.8667 59.0582H52.8475C52.0377 59.8336 50.2577 59.36 50.0706 59.8412Z" fill="white"/>
<path opacity="0.22" d="M50.0706 59.8412C49.7993 60.5211 56.6788 64.02 57.3663 63.8023C55.7353 61.4722 53.9782 59.7419 52.8475 59.0619C52.0377 59.8335 50.2577 59.3599 50.0706 59.8412Z" fill="#1F1F39"/>
</svg>
